<?xml version="1.0" encoding="utf-8"?>
<!-- Generator: Adobe Illustrator 19.0.0, SVG Export Plug-In . SVG Version: 6.00 Build 0)  -->
<svg version="1.1" id="Layer_1" xmlns="http://www.w3.org/2000/svg" xmlns:xlink="http://www.w3.org/1999/xlink" x="0px" y="0px"
	 viewBox="0 0 12.3 15.8" style="enable-background:new 0 0 12.3 15.8;" xml:space="preserve">
<style type="text/css">
	.st0{fill:none;stroke:#7fc590;;stroke-linecap:round;stroke-linejoin:round;stroke-miterlimit:10;}
	.st1{fill:none;stroke:#7fc590;stroke-linecap:round;stroke-linejoin:round;}
	.st2{fill:#7fc590;}
</style>
<path id="XMLID_19_" class="st0" d="M8.5,10.5C7.7,10,7,9.8,6.2,10.7c-1-0.3-1.8-1.9-1.8-1.9S3.6,7.3,4,6.2c1.2-0.1,1.5-0.7,1.5-1.7
	l0.2-2.3c0.1-0.9-0.4-1.7-1.3-1.7c0,0-3.4-0.6-3.9,3.5c-0.1,1,0,3.2,1.2,5.9s2.9,3.9,3.8,4.5c3.5,2.2,5.3-0.5,5.3-0.5
	c0.5-0.8,0.3-1.6-0.5-2.1L8.5,10.5z"/>
<g id="XMLID_1_">
	<path id="XMLID_5_" class="st1" d="M8.8,3.2c2,0.6,3.1,2.7,2.5,4.7"/>
	<g id="XMLID_3_">
		<path id="XMLID_4_" class="st2" d="M10.4,7.8l0.4,1.5c0,0.1,0.2,0.2,0.3,0.1l1.1-1.1c0.1-0.1,0.1-0.3-0.1-0.3l-1.5-0.5
			C10.5,7.5,10.4,7.6,10.4,7.8z"/>
	</g>
</g>
</svg>
